<svg role="img" version="1.1" viewBox="0 0 248.56 263.36" xmlns="http://www.w3.org/2000/svg">
 <defs>
  <linearGradient id="F" x2="1" gradientTransform="matrix(-1272.8,1792.1,-1792.1,-1272.8,1433.7,-478.71)" gradientUnits="userSpaceOnUse">
   <stop stop-color="#fff" offset="0"/>
   <stop stop-color="#fff" offset=".368"/>
   <stop stop-color="#0064ff" offset=".71"/>
  </linearGradient>
  <linearGradient id="G" x1="-.187" x2="1" y1="-.128" gradientTransform="matrix(-360.43,707.08,-707.08,-360.43,688.11,608.53)" gradientUnits="userSpaceOnUse">
   <stop stop-color="#fff" offset="0"/>
   <stop stop-color="#fff" offset=".381"/>
   <stop stop-color="#0064ff" offset=".785"/>
  </linearGradient>
 </defs>
 <g transform="translate(-53.069 -38.071)">
  <g transform="matrix(.27718 0 0 .27718 .000133 -.00017)">
   <g stroke-width="1.3333">
    <path d="m473.63 190.74c-155.84 0-282.17 126.33-282.17 282.17v614.59h614.59c39.813 0 77.693-8.2706 112.1-23.192 100.11-43.291 170.07-142.94 170.07-258.98v-614.59z" fill="#fff" opacity=".5"/>
    <path d="m493.58 244.55c-137.15 0-248.31 111.16-248.31 248.31v193.88l0.068 0.20534c0.476 2.0413 4.2867 16.328 14.353 37.892 41.925 87.08 183.07 292.87 625.06 288.45 88.099-38.096 149.67-125.79 149.67-227.9v-540.84z" fill="url(#F)"/>
    <path d="m884.75 1013.3c-30.273 13.129-63.608 20.409-98.643 20.409h-540.84v-346.95l0.068 0.204c0.47734 2.0413 4.2867 16.327 14.355 37.893 40.477 87.077 183.07 292.87 625.06 288.45" fill="#fff"/>
    <path d="m259.69 724.84c42.473 89.661 209.81 327.47 625.06 288.45-244.91 4.288-256.54-153.07-215.12-233.65-224.36 32.956-381.04 6.9653-424.36-92.9 0.476 2.0427 4.2333 16.589 14.423 38.097" fill="url(#G)"/>
   </g>
   <path class="C" d="m933.86 190.74c0 14.751 0.8 32.135 0.8 52.084 0 52.869-5.6867 97.451-15.503 97.451" fill="none" stroke="#4176c7" stroke-opacity=".3" stroke-width="13.333"/>
   <path d="m966.19 343.19c0 18.82-15.256 34.077-34.076 34.077s-34.077-15.257-34.077-34.077 15.256-34.076 34.077-34.076 34.076 15.256 34.076 34.076" fill="#fff" stroke-width="1.3333"/>
   <path class="C" d="m916.75 190.74c0-28.623 8.8893-45.765 15.361-45.765 9.816 0 17.773 42.859 17.773 95.728s-7.9573 95.729-17.773 95.729" fill="none" stroke="#fff" stroke-width="15.245"/>
  </g>
  <path d="m198.3 159.41-0.2288-1.3074-6.596-2.2226c0.15694 0.25496 0.31374 0.50337 0.47721 0.74524a11.865 11.865 0 0 1 1.85 3.7196v0.11761a28.332 28.332 0 0 0-19.435 30.855 1.3074 1.3074 0 0 1-0.51641-1.0394 9.4461 9.4461 0 0 0-0.2092-1.8958 15.689 15.689 0 0 0-0.65361-2.2292 21.821 21.821 0 0 1-0.78455-2.4253 8.4525 8.4525 0 0 1-0.28107-2.0004 6.5371 6.5371 0 0 1 0.12401-1.3532 3.5431 3.5431 0 0 1 0.4968-1.2159 1.0133 1.0133 0 0 0 0.0853-0.3007 6.3018 6.3018 0 0 0 0.0653-1.0525 3.5497 3.5497 0 0 0-0.17-1.0721 6.962 6.962 0 0 0-0.59481-1.3074c-0.33347-0.5818-0.58841-1.059-0.75828-1.412a3.1378 3.1378 0 0 1-0.40534-1.2486c0-2.1573-0.73867-2.6148-1.7651-2.6148a15.689 15.689 0 0 0-2.0264 0.18958 20.213 20.213 0 0 1-2.7456 0.2484 2.9875 2.9875 0 0 1-2.0396-0.94133 9.7665 9.7665 0 0 1-1.5362-2.0004c-0.4772-0.79099-0.84321-1.4316-1.0851-1.9088a3.785 3.785 0 0 1-0.51-1.5101v-1.0263c-0.032-3.6542-0.0653-7.1124 3.4582-9.6619 1.4643-2.0788 2.7783-3.4255 4.3667-4.2884 1.5886-0.86291 3.4843-1.2028 5.962-1.2028a1.3074 1.3074 0 0 1 1.3074 1.3074v1.8631l1.582 0.69293v-0.10454a1.3074 1.3074 0 0 1 1.5624-1.0132 10.852 10.852 0 0 1 1.3074 0.37262 5.6938 5.6938 0 0 1 1.131 0.54911 2.386 2.386 0 0 0 0.82361 0.26148 3.3535 3.3535 0 0 0 1.1963 0 0.96096 0.96096 0 0 0 0.38574-0.1308c0.032-0.19612 0.0587-0.39223 0.0853-0.59487l-1.5624 0.14381a1.3074 1.3074 0 0 1-1.3074-0.75177c-0.5164-1.0852-1.6016-1.6408-2.9744-2.3403-6.9293-3.5366-13.355-0.79753-13.885-2.2749-0.29413-0.82369 0.13067-1.4839 0.70601-2.373 0.57534-0.88906 1.2487-1.9612 1.2487-3.0071a1.3074 1.3074 0 0 1 0.88254-1.242l5.295-2.4187c-0.56867-0.10454-1.3075-0.2288-1.8631-3.079a1.3074 1.3074 0 0 1 0.65374-1.4251s1.4643-0.84982 1.5688-0.90212c0.56228-0.37915 1.2422-0.87597 2.0266-1.4774h0.052a32.372 32.372 0 0 0-7.7726 2.1638 35.568 35.568 0 0 0-5.7918 3.1313 32.241 32.241 0 0 0-4.9814 4.1053 32.457 32.457 0 0 0-4.0987 4.9747 35.431 35.431 0 0 0-3.1378 5.7984l-0.052 0.0719a32.483 32.483 0 0 0-1.9612 6.3083 35.431 35.431 0 0 0 0 13.617c0 0.11774 0.052 0.23535 0.072 0.35301l6.0992 2.9156a1.3074 1.3074 0 0 1 0.74521 1.1375 10.786 10.786 0 0 1-0.87588 4.3537 10.688 10.688 0 0 0-0.77801 3.1705 1.3401 1.3401 0 0 1-0.032 0.36609 33.097 33.097 0 0 0 4.0138 4.8505 32.895 32.895 0 0 0 4.9813 4.0988 35.595 35.595 0 0 0 5.792 3.1378h0.0653a32.287 32.287 0 0 0 6.3018 1.9611 35.085 35.085 0 0 0 4.1771 0.56219 27.639 27.639 0 0 0 1.1636 2.7064 37.536 37.536 0 0 1-5.8834-0.6864 34.869 34.869 0 0 1-6.8181-2.1115h-0.072a38.419 38.419 0 0 1-6.1908-3.4058 35.614 35.614 0 0 1-5.3799-4.4256 35.242 35.242 0 0 1-4.4257-5.38 38.19 38.19 0 0 1-3.3731-6.2168 34.601 34.601 0 0 1-2.1376-6.8574 37.974 37.974 0 0 1 0-14.643 34.3 34.3 0 0 1 2.1114-6.8378 0.32032 0.32032 0 0 1 0-0.0719 38.419 38.419 0 0 1 3.3732-6.2168 35.614 35.614 0 0 1 4.4255-5.3801 35.242 35.242 0 0 1 5.3735-4.4256 37.915 37.915 0 0 1 6.23-3.3732 35.738 35.738 0 0 1 14.231-2.8502 36.98 36.98 0 0 1 7.3412 0.71254 34.915 34.915 0 0 1 6.8052 2.105l0.072 0.0327a38.693 38.693 0 0 1 6.1972 3.3731 35.562 35.562 0 0 1 5.3735 4.4256 35.242 35.242 0 0 1 4.4322 5.38 38.419 38.419 0 0 1 3.3927 6.1972 34.647 34.647 0 0 1 2.1376 6.8836 37.621 37.621 0 0 1 0.68641 5.8834 28.338 28.338 0 0 0-16.598-2.6148zm0.86948 20.461a1.7912 1.7912 0 1 1 3.5758 0v8.8905l6.0402 2.6541a1.7912 1.7912 0 0 1-1.4382 3.2686l-7.0142-3.079a1.7912 1.7912 0 0 1-1.1636-1.68zm16.918-6.9424a1.6343 1.6343 0 0 1 0.0987 0.49029 1.6147 1.6147 0 0 1-1.1178 1.8108l-4.3146 1.3074a1.6147 1.6147 0 0 1-0.98055-3.0724 16.036 16.036 0 1 0-12.963 29.273l0.14386 0.0457c0.41841 0.15035 0.84322 0.2811 1.2682 0.39877a1.1178 1.1178 0 0 1 0.17653 0.0588 16.016 16.016 0 0 0 4.0203 0.5099 1.7781 1.7781 0 0 1 1.1375 0.4053l0.18307-0.1765a1.8631 1.8631 0 0 1 0.87587-0.37262 19.036 19.036 0 0 0 3.2686-0.77791 1.7912 1.7912 0 0 1 1.0394 3.4189 20.344 20.344 0 0 1-3.8242 0.90865 1.8304 1.8304 0 0 1-1.3792-0.39222 1.7781 1.7781 0 0 1-1.3075 0.56219 19.611 19.611 0 1 1 9.25-36.889l-0.21574-0.57527a1.6212 1.6212 0 0 1 3.0267-1.1505l1.6082 4.2099zm2.8044 4.1707a1.7978 1.7978 0 0 0-3.0136 1.9611 16.48 16.48 0 0 1 1.471 2.8567 1.7912 1.7912 0 0 0 3.3274-1.3074 19.101 19.101 0 0 0-1.7847-3.4908zm-5.635 22.514a1.7912 1.7912 0 0 0 2.3403 2.7064 18.958 18.958 0 0 0 2.6934-3.0005 1.7912 1.7912 0 0 0-2.8895-2.1115 15.63 15.63 0 0 1-2.1442 2.4057zm4.7722-8.2106a1.7912 1.7912 0 0 0 3.2684 1.3074 1.7323 1.7323 0 0 0 0.20267-0.50989 20.442 20.442 0 0 0 0.50334-3.883 1.7912 1.7912 0 0 0-3.5758-0.11107 16.604 16.604 0 0 1-0.41841 3.2032z" opacity=".22" stroke-width=".65371"/>
  <path d="m200.28 156.04-0.2288-1.3074-6.596-2.2226c0.15694 0.25496 0.31374 0.50337 0.47721 0.74524a11.865 11.865 0 0 1 1.85 3.7196v0.11761a28.332 28.332 0 0 0-19.435 30.855 1.3074 1.3074 0 0 1-0.51641-1.0394 9.4461 9.4461 0 0 0-0.2092-1.8958 15.689 15.689 0 0 0-0.65361-2.2292 21.821 21.821 0 0 1-0.78455-2.4253 8.4525 8.4525 0 0 1-0.28107-2.0004 6.5371 6.5371 0 0 1 0.12401-1.3532 3.5431 3.5431 0 0 1 0.4968-1.2159 1.0133 1.0133 0 0 0 0.0853-0.3007 6.3018 6.3018 0 0 0 0.0653-1.0525 3.5497 3.5497 0 0 0-0.17-1.0721 6.962 6.962 0 0 0-0.59481-1.3074c-0.33347-0.5818-0.58841-1.059-0.75828-1.412a3.1378 3.1378 0 0 1-0.40534-1.2486c0-2.1573-0.73867-2.6148-1.7651-2.6148a15.689 15.689 0 0 0-2.0264 0.18958 20.213 20.213 0 0 1-2.7456 0.2484 2.9875 2.9875 0 0 1-2.0396-0.94133 9.7665 9.7665 0 0 1-1.5362-2.0004c-0.4772-0.79099-0.84321-1.4316-1.0851-1.9088a3.785 3.785 0 0 1-0.51-1.5101v-1.0263c-0.032-3.6542-0.0653-7.1124 3.4582-9.6619 1.4643-2.0788 2.7783-3.4255 4.3667-4.2884 1.5886-0.86291 3.4843-1.2028 5.962-1.2028a1.3074 1.3074 0 0 1 1.3074 1.3074v1.8631l1.582 0.69293v-0.10454a1.3074 1.3074 0 0 1 1.5624-1.0132 10.852 10.852 0 0 1 1.3074 0.37262 5.6938 5.6938 0 0 1 1.131 0.54911 2.386 2.386 0 0 0 0.82361 0.26148 3.3535 3.3535 0 0 0 1.1963 0 0.96096 0.96096 0 0 0 0.38574-0.1308c0.032-0.19612 0.0587-0.39223 0.0853-0.59487l-1.5624 0.14381a1.3074 1.3074 0 0 1-1.3074-0.75177c-0.5164-1.0852-1.6016-1.6408-2.9744-2.3403-6.9293-3.5366-13.355-0.79753-13.885-2.2749-0.29413-0.82369 0.13067-1.4839 0.70601-2.373 0.57534-0.88906 1.2487-1.9612 1.2487-3.0071a1.3074 1.3074 0 0 1 0.88254-1.242l5.295-2.4187c-0.56867-0.10454-1.3075-0.2288-1.8631-3.079a1.3074 1.3074 0 0 1 0.65374-1.4251s1.4643-0.84982 1.5688-0.90212c0.56228-0.37915 1.2422-0.87597 2.0266-1.4774h0.052a32.372 32.372 0 0 0-7.7726 2.1638 35.568 35.568 0 0 0-5.7918 3.1313 32.241 32.241 0 0 0-4.9814 4.1053 32.457 32.457 0 0 0-4.0987 4.9747 35.431 35.431 0 0 0-3.1378 5.7984l-0.052 0.0719a32.483 32.483 0 0 0-1.9612 6.3083 35.431 35.431 0 0 0 0 13.617c0 0.11774 0.052 0.23535 0.072 0.35301l6.0992 2.9156a1.3074 1.3074 0 0 1 0.74521 1.1375 10.786 10.786 0 0 1-0.87588 4.3537 10.688 10.688 0 0 0-0.77801 3.1705 1.3401 1.3401 0 0 1-0.032 0.36609 33.097 33.097 0 0 0 4.0138 4.8505 32.895 32.895 0 0 0 4.9813 4.0988 35.595 35.595 0 0 0 5.792 3.1378h0.0653a32.287 32.287 0 0 0 6.3018 1.9611 35.085 35.085 0 0 0 4.1771 0.56219 27.639 27.639 0 0 0 1.1636 2.7064 37.536 37.536 0 0 1-5.8834-0.6864 34.869 34.869 0 0 1-6.8181-2.1115h-0.072a38.419 38.419 0 0 1-6.1908-3.4058 35.614 35.614 0 0 1-5.3799-4.4256 35.242 35.242 0 0 1-4.4257-5.38 38.19 38.19 0 0 1-3.3731-6.2168 34.601 34.601 0 0 1-2.1376-6.8574 37.974 37.974 0 0 1 0-14.643 34.3 34.3 0 0 1 2.1114-6.8378 0.32032 0.32032 0 0 1 0-0.0719 38.419 38.419 0 0 1 3.3732-6.2168 35.614 35.614 0 0 1 4.4255-5.3801 35.242 35.242 0 0 1 5.3735-4.4256 37.915 37.915 0 0 1 6.23-3.3732 35.738 35.738 0 0 1 14.231-2.8502 36.98 36.98 0 0 1 7.3412 0.71254 34.915 34.915 0 0 1 6.8052 2.105l0.072 0.0327a38.693 38.693 0 0 1 6.1972 3.3731 35.562 35.562 0 0 1 5.3735 4.4256 35.242 35.242 0 0 1 4.4322 5.38 38.419 38.419 0 0 1 3.3927 6.1972 34.647 34.647 0 0 1 2.1376 6.8836 37.621 37.621 0 0 1 0.68641 5.8834 28.338 28.338 0 0 0-16.598-2.6148zm0.86948 20.461a1.7912 1.7912 0 1 1 3.5758 0v8.8905l6.0402 2.6541a1.7912 1.7912 0 0 1-1.4382 3.2686l-7.0142-3.079a1.7912 1.7912 0 0 1-1.1636-1.68zm16.918-6.9424a1.6343 1.6343 0 0 1 0.0987 0.49029 1.6147 1.6147 0 0 1-1.1178 1.8108l-4.3146 1.3074a1.6147 1.6147 0 0 1-0.98055-3.0724 16.036 16.036 0 1 0-12.963 29.273l0.14386 0.0457c0.41841 0.15035 0.84322 0.2811 1.2682 0.39877a1.1178 1.1178 0 0 1 0.17653 0.0588 16.016 16.016 0 0 0 4.0203 0.5099 1.7781 1.7781 0 0 1 1.1375 0.4053l0.18307-0.1765a1.8631 1.8631 0 0 1 0.87587-0.37262 19.036 19.036 0 0 0 3.2686-0.77791 1.7912 1.7912 0 0 1 1.0394 3.4189 20.344 20.344 0 0 1-3.8242 0.90865 1.8304 1.8304 0 0 1-1.3792-0.39222 1.7781 1.7781 0 0 1-1.3075 0.56219 19.611 19.611 0 1 1 9.25-36.889l-0.21574-0.57527a1.6212 1.6212 0 0 1 3.0267-1.1505l1.6082 4.2099zm2.8044 4.1707a1.7978 1.7978 0 0 0-3.0136 1.9611 16.48 16.48 0 0 1 1.471 2.8567 1.7912 1.7912 0 0 0 3.3274-1.3074 19.101 19.101 0 0 0-1.7847-3.4908zm-5.635 22.514a1.7912 1.7912 0 0 0 2.3403 2.7064 18.958 18.958 0 0 0 2.6934-3.0005 1.7912 1.7912 0 0 0-2.8895-2.1115 15.63 15.63 0 0 1-2.1442 2.4057zm4.7722-8.2106a1.7912 1.7912 0 0 0 3.2684 1.3074 1.7323 1.7323 0 0 0 0.20267-0.50989 20.442 20.442 0 0 0 0.50334-3.883 1.7912 1.7912 0 0 0-3.5758-0.11107 16.604 16.604 0 0 1-0.41841 3.2032z" fill="#fff" stroke-width=".65371"/>
 </g>
</svg>
